<svg xmlns="http://www.w3.org/2000/svg" width="88.815" height="87.388" viewBox="0 0 88.815 87.388">
  <g id="Group_34115" data-name="Group 34115" transform="translate(10305.815 -7866.438)">
    <g id="agreement" transform="translate(-10303.815 7864.894)">
      <path id="Path_6348" data-name="Path 6348" d="M108.58,38.736l1.169-1.169L108.58,36.4a1.525,1.525,0,1,1,2.156-2.156l1.169,1.169,1.169-1.169A1.524,1.524,0,0,1,115.23,36.4l-1.169,1.169,1.169,1.169a1.525,1.525,0,1,1-2.156,2.156L111.9,39.722l-1.169,1.169a1.525,1.525,0,1,1-2.156-2.156Z" transform="translate(-29.938 -29.794)" fill="#ff7b2e"/>
    </g>
    <g id="file" transform="translate(-10324.607 7877.107)">
      <g id="Group_34094" data-name="Group 34094" transform="translate(47.304 51.146)">
        <g id="Group_34093" data-name="Group 34093">
          <path id="Path_20063" data-name="Path 20063" d="M119.783,341.333v20.778a1.6,1.6,0,0,1-1.6,1.6H70.236a1.6,1.6,0,0,1-1.6-1.6h-3.2a4.8,4.8,0,0,0,4.795,4.795h47.949a4.8,4.8,0,0,0,4.795-4.795V341.333Z" transform="translate(-65.441 -341.333)" fill="#ff7b2e"/>
        </g>
      </g>
      <g id="Group_34096" data-name="Group 34096" transform="translate(47.304)">
        <g id="Group_34095" data-name="Group 34095">
          <path id="Path_20064" data-name="Path 20064" d="M122.959,15.882a1.507,1.507,0,0,0-.081-.411c-.018-.051-.03-.1-.053-.15a1.6,1.6,0,0,0-.32-.468L108.121.468a1.6,1.6,0,0,0-.468-.32c-.05-.022-.1-.035-.15-.053a1.589,1.589,0,0,0-.412-.083C107.061.018,107.031,0,107,0H70.236a4.8,4.8,0,0,0-4.795,4.795V36.761h3.2V4.795a1.6,1.6,0,0,1,1.6-1.6H105.4v9.59a4.8,4.8,0,0,0,4.795,4.795h9.59V35.163h3.2V15.983C122.98,15.948,122.962,15.917,122.959,15.882Zm-12.766-1.5a1.6,1.6,0,0,1-1.6-1.6V5.457l8.928,8.928Z" transform="translate(-65.441)" fill="#ff7b2e"/>
        </g>
      </g>
      <g id="Group_34098" data-name="Group 34098" transform="translate(44.107 38.52)">
        <g id="Group_34097" data-name="Group 34097">
          <path id="Path_20065" data-name="Path 20065" d="M107.139,259.408a8,8,0,0,0-11.306,0l-8.439,8.439a4.892,4.892,0,0,0-3.329-1.347H75.407a7.977,7.977,0,0,0-7.325-4.795H61.688a7.992,7.992,0,0,0-4.795,1.6v-1.6a1.6,1.6,0,0,0-1.6-1.6h-9.59a1.6,1.6,0,0,0-1.6,1.6v25.573a1.6,1.6,0,0,0,1.6,1.6H55.3a1.6,1.6,0,0,0,1.6-1.6v-1.6H82.466a1.6,1.6,0,0,0,1.13-.468l23.543-23.543A1.6,1.6,0,0,0,107.139,259.408ZM53.7,285.68H47.3V263.3H53.7Zm28.108-3.2H56.894V269.7a4.271,4.271,0,0,1,.144-1.136.251.251,0,0,1,.014-.067,4.774,4.774,0,0,1,4.637-3.591h6.393a4.774,4.774,0,0,1,4.635,3.591,1.6,1.6,0,0,0,1.55,1.2h9.8a1.629,1.629,0,0,1,.985.347,1.528,1.528,0,0,1,.535.79.565.565,0,0,0,.024.056,1.3,1.3,0,0,1,.054.406,1.557,1.557,0,0,1-.489,1.138,1.53,1.53,0,0,1-1.109.46H66.483v3.2H84.065a4.819,4.819,0,0,0,4.795-4.795c0-.123-.019-.243-.029-.364l9.27-9.262a4.8,4.8,0,0,1,5.463-.937Z" transform="translate(-44.107 -257.07)" fill="#ff7b2e"/>
        </g>
      </g>
      <g id="Group_34100" data-name="Group 34100" transform="translate(48.902 47.949)">
        <g id="Group_34099" data-name="Group 34099" transform="translate(0)">
          <rect id="Rectangle_3028" data-name="Rectangle 3028" width="3.197" height="3.197" fill="#ff7b2e"/>
        </g>
      </g>
      <g id="Group_34104" data-name="Group 34104" transform="translate(64.608 15.893)">
        <g id="Group_34103" data-name="Group 34103" transform="translate(0)">
          <path id="Path_20067" data-name="Path 20067" d="M197.159,106.667a14.385,14.385,0,1,0,14.385,14.385A14.385,14.385,0,0,0,197.159,106.667Zm0,25.573a11.188,11.188,0,1,1,11.188-11.188A11.188,11.188,0,0,1,197.159,132.24Z" transform="translate(-182.774 -106.667)" fill="#ff7b2e"/>
        </g>
      </g>
      <g id="Group_34110" data-name="Group 34110" transform="translate(53.894 10.983)">
        <g id="Group_34109" data-name="Group 34109">
          <rect id="Rectangle_3031" data-name="Rectangle 3031" width="12.786" height="3.197" fill="#ff7b2e"/>
        </g>
      </g>
      <g id="Group_34111" data-name="Group 34111" transform="translate(53.894 5.983)">
        <g id="Group_34109-2" data-name="Group 34109">
          <rect id="Rectangle_3031-2" data-name="Rectangle 3031" width="12.786" height="3.197" fill="#ff7b2e"/>
        </g>
      </g>
    </g>
    <path id="Path_20068" data-name="Path 20068" d="M-2.208,0V-6.592H-.624v5.056H.224A8.907,8.907,0,0,0,1.9-1.664,1.909,1.909,0,0,0,2.9-2.152a2.035,2.035,0,0,0,.5-1.048,9.148,9.148,0,0,0,.144-1.808V-9.52H5.28v4.512A7.772,7.772,0,0,1,4.816-2.04,2.863,2.863,0,0,1,3.248-.472,7.872,7.872,0,0,1,.224,0ZM-5.184,0V-9.52H-1.12a3.646,3.646,0,0,1,2.528.76A3.07,3.07,0,0,1,2.24-6.384V-3.04H.656V-6.1a1.872,1.872,0,0,0-.48-1.48,1.86,1.86,0,0,0-1.248-.408h-2.4V0Z" transform="translate(-10245.316 7912.02)" fill="#ff7b2e" stroke="#ff7b2e" stroke-width="0.5"/>
    <path id="Path_20069" data-name="Path 20069" d="M56.792,63.279a1.525,1.525,0,1,1,2.156-2.156l2.583,2.585a1.524,1.524,0,1,1-2.156,2.156ZM50.763,57.25a1.524,1.524,0,0,1,2.156-2.156L55.5,57.679a1.524,1.524,0,1,1-2.156,2.156Zm6.315,2.3a1.524,1.524,0,0,1,0-2.156l2.606-2.606a1.525,1.525,0,1,1,2.156,2.156l-2.606,2.606a1.524,1.524,0,0,1-2.156,0Zm-6.315,6.315a1.524,1.524,0,0,1,0-2.156l2.583-2.585A1.524,1.524,0,1,1,55.5,63.279l-2.583,2.585a1.524,1.524,0,0,1-2.156,0ZM41.426,44.193a4.706,4.706,0,1,0-2.283-2.784,4.675,4.675,0,0,0,2.283,2.784Zm.759-4.927a1.651,1.651,0,1,1-.125,1.26A1.656,1.656,0,0,1,42.185,39.266Z" transform="translate(-10344.754 7831.099)" fill="#ff7b2e"/>
  </g>
</svg>
